<svg width="100" height="100" viewBox="0 0 100 100" fill="none" xmlns="http://www.w3.org/2000/svg">
<rect width="100" height="100" fill="#3B82F6"/>
<path d="M62.052 60.654C62.052 63.134 61.4113 65.2213 60.13 66.916C58.8487 68.5693 57.1127 69.83 54.922 70.698C52.7727 71.566 50.4167 72 47.854 72H26.588V27.98H50.148C52.2147 27.98 53.992 28.538 55.48 29.654C57.0093 30.7287 58.1667 32.134 58.952 33.87C59.7787 35.5647 60.192 37.342 60.192 39.202C60.192 41.31 59.6547 43.3147 58.58 45.216C57.5053 47.1173 55.9347 48.5227 53.868 49.432C56.3893 50.176 58.3733 51.5193 59.82 53.462C61.308 55.4047 62.052 57.802 62.052 60.654ZM53.434 59.042C53.434 57.926 53.2067 56.934 52.752 56.066C52.2973 55.1567 51.6773 54.454 50.892 53.958C50.148 53.4207 49.28 53.152 48.288 53.152H35.144V64.746H47.854C48.8873 64.746 49.8173 64.498 50.644 64.002C51.512 63.4647 52.194 62.762 52.69 61.894C53.186 61.026 53.434 60.0753 53.434 59.042ZM35.144 35.296V46.394H46.552C47.5027 46.394 48.3707 46.1667 49.156 45.712C49.9413 45.2573 50.5613 44.6167 51.016 43.79C51.512 42.9633 51.76 41.9713 51.76 40.814C51.76 39.698 51.5327 38.7267 51.078 37.9C50.6647 37.0733 50.086 36.4327 49.342 35.978C48.6393 35.5233 47.8333 35.296 46.924 35.296H35.144ZM67.7366 72V63.072H74.5566V72H67.7366Z" fill="white"/>
</svg>
