<svg width="512" height="512" viewBox="0 0 512 512" fill="none" xmlns="http://www.w3.org/2000/svg">
<g clip-path="url(#clip0_21_3)">
<path d="M501.862 279.793L279.792 501.858C266.93 514.708 246.098 514.708 233.252 501.858L10.141 278.762C-2.713 265.911 -2.713 245.072 10.141 232.209L163.121 79.2351L221.054 137.177C215.114 151.406 217.902 168.41 229.49 179.988C233.277 183.787 237.643 186.623 242.309 188.532V328.83C237.643 330.743 233.27 333.596 229.49 337.372C214.193 352.667 214.193 377.443 229.49 392.755C244.771 408.051 269.564 408.051 284.863 392.755C300.158 377.443 300.158 352.667 284.863 337.372C281.753 334.278 278.234 331.816 274.505 329.97L274.509 190.96L327.335 243.786C321.509 257.96 324.353 274.86 335.856 286.371C351.164 301.675 375.944 301.675 391.248 286.371C406.543 271.072 406.543 246.292 391.248 230.999C380.303 220.037 364.492 216.984 350.79 221.706L294.15 165.067C298.879 151.36 295.805 135.566 284.864 124.613C273.977 113.725 258.318 110.632 244.658 115.244L185.891 56.4751L232.217 10.1421C245.073 -2.70995 265.913 -2.70995 278.75 10.1421L501.862 233.24C514.712 246.092 514.712 266.938 501.862 279.793Z" fill="#F1502F"/>
</g>
<defs>
<clipPath id="clip0_21_3">
<rect width="512" height="512" fill="white"/>
</clipPath>
</defs>
</svg>
