<svg width="32" height="32" viewBox="0 0 32 32" fill="none" xmlns="http://www.w3.org/2000/svg">
<g clip-path="url(#clip0_49_2)">
<rect width="32" height="32" rx="2" fill="#3B82F6"/>
<path d="M10.55 19.225H15.75L16.8 22.125H9.525L10.55 19.225ZM10.825 7.5H14.25L9.475 25H5.15L10.825 7.5ZM12.125 7.5H15.55L21.225 25H16.9L12.125 7.5ZM24.6568 25.5C24.0068 25.5 23.4652 25.2833 23.0318 24.85C22.5985 24.4 22.3818 23.8583 22.3818 23.225C22.3818 22.5917 22.5985 22.0583 23.0318 21.625C23.4652 21.1917 24.0068 20.975 24.6568 20.975C25.3068 20.975 25.8485 21.1917 26.2818 21.625C26.7152 22.0583 26.9318 22.5917 26.9318 23.225C26.9318 23.8583 26.7152 24.4 26.2818 24.85C25.8485 25.2833 25.3068 25.5 24.6568 25.5Z" fill="white"/>
</g>
<defs>
<clipPath id="clip0_49_2">
<rect width="32" height="32" fill="white"/>
</clipPath>
</defs>
</svg>
