<svg width="384" height="344" viewBox="0 0 384 344" fill="none" xmlns="http://www.w3.org/2000/svg">
<path d="M192 201C211.882 201 228 184.882 228 165C228 145.118 211.882 129 192 129C172.118 129 156 145.118 156 165C156 184.882 172.118 201 192 201Z" fill="#61DAFB"/>
<path d="M253.47 200.43C277.015 158.037 292.713 114.359 297.111 79.0015C301.508 43.644 294.246 19.5035 276.92 11.8896C259.594 4.27575 233.624 13.8121 204.723 38.4011C175.821 62.9901 146.354 100.618 122.804 143.008C99.2538 185.399 83.5486 229.08 79.1429 264.444C74.7372 299.809 81.9917 323.96 99.3109 331.586C116.63 339.212 142.595 329.687 171.496 305.108C200.396 280.529 229.865 242.908 253.42 200.52L253.47 200.43ZM130.58 200.52C154.135 242.908 183.604 280.529 212.504 305.108C241.405 329.687 267.37 339.212 284.689 331.586C302.008 323.96 309.263 299.809 304.857 264.444C300.451 229.08 284.746 185.399 261.196 143.008C237.646 100.618 208.179 62.9901 179.277 38.4011C150.376 13.8121 124.406 4.27575 107.08 11.8896C89.7544 19.5035 82.4916 43.644 86.8892 79.0015C91.2868 114.359 106.985 158.037 130.53 200.43L130.58 200.52ZM192.05 235.95C240.58 235.945 287.118 228.461 321.427 215.144C355.736 201.828 375.007 183.769 375 164.94C374.993 146.112 355.71 128.055 321.392 114.742C287.073 101.429 240.53 93.95 192 93.95C143.47 93.95 96.9267 101.429 62.6083 114.742C28.2899 128.055 9.00663 146.112 9 164.94C8.99337 183.769 28.2639 201.828 62.5729 215.144C96.882 228.461 143.42 235.945 191.95 235.95H192.05Z" stroke="#61DAFB" stroke-width="18"/>
</svg>
