<svg width="135" height="135" viewBox="0 0 135 135" fill="none" xmlns="http://www.w3.org/2000/svg">
<g clip-path="url(#clip0_19_20)">
<path d="M67.5056 27C49.5056 27 38.2556 36 33.7556 54C40.5056 45 48.3806 41.625 57.3806 43.875C62.5162 45.1575 66.1837 48.8812 70.2506 53.01C76.8712 59.7262 84.5269 67.5 101.256 67.5C119.256 67.5 130.506 58.5 135.006 40.5C128.256 49.5 120.381 52.875 111.381 50.625C106.245 49.3425 102.578 45.6187 98.5106 41.49C91.8956 34.7737 84.24 27 67.5056 27ZM33.7556 67.5C15.7556 67.5 4.50562 76.5 0.00562286 94.5C6.75562 85.5 14.6306 82.125 23.6306 84.375C28.7662 85.6575 32.4337 89.3813 36.5006 93.51C43.1212 100.226 50.7769 108 67.5056 108C85.5056 108 96.7556 99 101.256 81C94.5056 90 86.6306 93.375 77.6306 91.125C72.495 89.8425 68.8275 86.1188 64.7606 81.99C58.1456 75.2738 50.49 67.5 33.7556 67.5Z" fill="#0EA5E9"/>
</g>
<defs>
<clipPath id="clip0_19_20">
<rect width="135" height="135" fill="white"/>
</clipPath>
</defs>
</svg>
