<svg width="225" height="225" viewBox="0 0 225 225" fill="none" xmlns="http://www.w3.org/2000/svg">
<g clip-path="url(#clip0_19_18)">
<path d="M0 112.5V225H225V0H0V112.5ZM181.308 103.528C187.024 104.955 191.377 107.522 195.405 111.656C197.459 113.85 200.531 117.879 200.791 118.87C200.862 119.166 191.088 125.719 185.154 129.382C184.936 129.53 184.057 128.616 183.101 127.181C180.211 122.97 177.166 121.141 172.519 120.811C165.705 120.368 161.311 123.926 161.346 129.895C161.311 131.358 161.641 132.827 162.295 134.107C163.8 137.222 166.62 139.085 175.331 142.861C191.447 149.78 198.33 154.357 202.612 160.84C207.408 168.089 208.47 179.663 205.249 188.304C201.663 197.641 192.797 204.012 180.345 206.1C176.498 206.796 167.344 206.684 163.202 205.917C154.16 204.307 145.589 199.835 140.316 193.978C138.227 191.707 134.198 185.737 134.459 185.337C134.571 185.189 135.485 184.605 136.512 184.015C137.538 183.424 141.307 181.23 144.865 179.177L151.348 175.409L152.705 177.42C154.61 180.309 158.745 184.268 161.241 185.583C168.42 189.394 178.27 188.845 183.143 184.486C185.119 182.841 186.223 180.309 186.075 177.75C186.075 175.148 185.745 173.981 184.388 172.034C182.63 169.545 179.079 167.421 168.933 163.027C157.324 158.006 152.304 154.934 147.769 149.991C144.914 146.728 142.791 142.889 141.581 138.748C140.737 135.562 140.52 127.575 141.18 124.39C143.564 113.147 152.058 105.349 164.25 103.043C168.209 102.277 177.434 102.565 181.315 103.521L181.308 103.528ZM128.503 112.943L128.573 122.133H99.2742V205.376H78.5461V122.133H49.2891V113.126C49.2891 108.105 49.4016 103.936 49.5422 103.823C49.6547 103.676 67.4508 103.605 89.0578 103.641L128.391 103.753L128.503 112.943Z" fill="#3178C6"/>
</g>
<defs>
<clipPath id="clip0_19_18">
<rect width="225" height="225" fill="white"/>
</clipPath>
</defs>
</svg>
